<svg width="264" height="189" viewBox="0 0 264 189" fill="none" xmlns="http://www.w3.org/2000/svg">
<g clip-path="url(#clip0_15_69)">
<path d="M6.99017 188.583C6.99017 188.814 7.17634 189 7.40817 189H263.582C263.814 189 264 188.814 264 188.583C264 188.352 263.814 188.166 263.582 188.166H7.40817C7.17634 188.166 6.99017 188.352 6.99017 188.583Z" fill="#3F3D58"/>
<path d="M89.021 33.3383H6.8602C3.72692 33.3383 1.17673 30.7946 1.17673 27.6692C1.17673 24.5439 3.72692 22.0001 6.8602 22.0001H89.021C92.1543 22.0001 94.7045 24.5439 94.7045 27.6692C94.7045 30.7946 92.1543 33.3383 89.021 33.3383ZM6.8602 22.7009C4.11331 22.7009 1.87926 24.9293 1.87926 27.6692C1.87926 30.4092 4.11331 32.6375 6.8602 32.6375H89.021C91.7679 32.6375 94.0019 30.4092 94.0019 27.6692C94.0019 24.9293 91.7679 22.7009 89.021 22.7009H6.8602Z" fill="#B7EFC5"/>
<path d="M89.021 99.6821H6.8602C3.82176 99.6821 1.35237 97.2189 1.35237 94.1882C1.35237 91.1574 3.82176 88.6943 6.8602 88.6943H89.021C92.0594 88.6943 94.5288 91.1574 94.5288 94.1882C94.5288 97.2189 92.0594 99.6821 89.021 99.6821Z" fill="#6EDE8A"/>
<path d="M62.0966 10.9878H5.50783C2.46939 10.9878 0 8.52466 0 5.4939C0 2.46315 2.46939 0 5.50783 0H62.0966C65.135 0 67.6044 2.46315 67.6044 5.4939C67.6044 8.52466 65.135 10.9878 62.0966 10.9878Z" fill="#B7EFC5"/>
<path d="M89.021 55.5101H6.8602C3.72692 55.5101 1.17673 52.9664 1.17673 49.841C1.17673 46.7157 3.72692 44.1719 6.8602 44.1719H89.021C92.1543 44.1719 94.7045 46.7157 94.7045 49.841C94.7045 52.9664 92.1543 55.5101 89.021 55.5101ZM6.8602 44.8727C4.11331 44.8727 1.87926 47.1011 1.87926 49.841C1.87926 52.581 4.11331 54.8094 6.8602 54.8094H89.021C91.7679 54.8094 94.0019 52.581 94.0019 49.841C94.0019 47.1011 91.7679 44.8727 89.021 44.8727H6.8602Z" fill="#B7EFC5"/>
<path d="M89.021 77.6854H6.8602C3.72692 77.6854 1.17673 75.1417 1.17673 72.0163C1.17673 68.891 3.72692 66.3473 6.8602 66.3473H89.021C92.1543 66.3473 94.7045 68.891 94.7045 72.0163C94.7045 75.1417 92.1543 77.6854 89.021 77.6854ZM6.8602 67.048C4.11331 67.048 1.87926 69.2764 1.87926 72.0163C1.87926 74.7563 4.11331 76.9847 6.8602 76.9847H89.021C91.7679 76.9847 94.0019 74.7563 94.0019 72.0163C94.0019 69.2764 91.7679 67.048 89.021 67.048H6.8602Z" fill="#B7EFC5"/>
<path d="M4.03603 17.9288H25.5686C26.0814 17.9288 26.4994 18.3422 26.4994 18.8573C26.4994 19.3688 26.0814 19.7858 25.5686 19.7858H4.03603C3.52318 19.7858 3.10518 19.3723 3.10518 18.8573C3.10518 18.3457 3.52318 17.9288 4.03603 17.9288Z" fill="#B7EFC5"/>
<path d="M4.03603 40.6261H25.5686C26.0814 40.6261 26.4994 41.0396 26.4994 41.5511C26.4994 42.0627 26.0814 42.4796 25.5686 42.4796H4.03603C3.52318 42.4796 3.10518 42.0662 3.10518 41.5546C3.10518 41.0431 3.52318 40.6261 4.03603 40.6261Z" fill="#B7EFC5"/>
<path d="M4.03603 63.327H25.5686C26.0814 63.327 26.4994 63.7405 26.4994 64.2555C26.4994 64.7671 26.0814 65.1805 25.5686 65.1805H4.03603C3.52318 65.1805 3.10518 64.7671 3.10518 64.252C3.10518 63.7405 3.52318 63.327 4.03603 63.327Z" fill="#B7EFC5"/>
<path d="M157.043 46.3408L149.189 48.9195V37.6409H156.316L157.043 46.3408Z" fill="#9F616A"/>
<path d="M150.162 40.7628C154.484 40.7628 157.988 37.2677 157.988 32.9564C157.988 28.645 154.484 25.15 150.162 25.15C145.84 25.15 142.336 28.645 142.336 32.9564C142.336 37.2677 145.84 40.7628 150.162 40.7628Z" fill="#9F616A"/>
<path d="M152.312 32.1821C151.002 32.1435 150.141 30.8226 149.632 29.6173C149.122 28.412 148.599 27.028 147.384 26.5305C146.39 26.124 144.637 28.8745 143.853 28.1422C143.035 27.3784 143.832 23.4577 144.7 22.7534C145.568 22.0492 146.755 21.9125 147.872 21.86C150.598 21.7338 153.341 21.9546 156.014 22.5117C157.669 22.855 159.369 23.3736 160.563 24.5649C162.074 26.0785 162.46 28.3594 162.569 30.4932C162.681 32.6761 162.555 34.9605 161.49 36.8701C160.426 38.7796 158.199 40.1882 156.063 39.7011C155.849 38.5449 156.067 37.3571 156.151 36.1798C156.232 35.0061 156.148 33.7377 155.428 32.8022C154.711 31.8667 153.172 31.4953 152.336 32.3257" fill="#2F2E43"/>
<path d="M161.94 34.8869C162.723 34.3158 163.661 33.8358 164.624 33.9549C165.663 34.0811 166.545 34.936 166.812 35.9486C167.079 36.9612 166.78 38.0754 166.134 38.9023C165.491 39.7291 164.532 40.2757 163.521 40.549C162.934 40.7067 162.291 40.7733 161.733 40.535C160.911 40.1811 160.465 39.1335 160.788 38.2996" fill="#2F2E43"/>
<path d="M131.991 108.336C131.468 110.901 132.427 113.245 134.127 113.571C135.827 113.897 137.629 112.078 138.149 109.514C138.37 108.491 138.335 107.432 138.047 106.423L144.521 66.2176L136.424 64.697L133.298 105.516C132.634 106.343 132.188 107.31 131.991 108.34V108.336Z" fill="#9F616A"/>
<path d="M149.105 43.7445H143.579C139.673 44.3366 138.613 46.4143 137.724 50.2545C136.368 56.1128 134.636 63.9121 134.98 64.0278C135.532 64.21 144.939 68.6247 149.734 67.6156L149.105 43.7445Z" fill="#B7EFC5"/>
<path d="M154.448 171.811H147.092V182.22H154.448V171.811Z" fill="#9F616A"/>
<path d="M139.93 188.52C139.157 188.52 138.469 188.502 137.949 188.453C135.996 188.275 134.13 186.835 133.193 185.994C132.771 185.615 132.638 185.013 132.855 184.494C133.013 184.123 133.326 183.842 133.716 183.734L138.88 182.262L147.24 176.635L147.334 176.803C147.37 176.866 148.192 178.342 148.466 179.337C148.571 179.715 148.543 180.03 148.385 180.276C148.276 180.444 148.121 180.542 147.998 180.598C148.149 180.756 148.624 181.078 150.085 181.309C152.217 181.646 152.667 179.442 152.684 179.351L152.698 179.277L152.762 179.235C153.777 178.583 154.402 178.285 154.616 178.349C154.75 178.387 154.974 178.457 155.582 184.459C155.642 184.648 156.067 186.029 155.779 187.35C155.466 188.786 149.172 188.292 147.911 188.18C147.875 188.184 143.161 188.52 139.933 188.52H139.93Z" fill="#2F2E43"/>
<path d="M175.392 163.632L169.151 167.514L174.674 176.347L180.915 172.465L175.392 163.632Z" fill="#9F616A"/>
<path d="M167.104 187.094C166.24 187.094 165.446 186.989 164.88 186.891C164.325 186.793 163.89 186.351 163.798 185.798C163.735 185.398 163.851 184.995 164.125 184.697L167.725 180.724L171.835 171.537L172.004 171.628C172.067 171.663 173.546 172.48 174.308 173.18C174.6 173.447 174.744 173.731 174.737 174.021C174.733 174.225 174.656 174.386 174.579 174.501C174.789 174.557 175.362 174.578 176.725 174.004C178.713 173.166 177.926 171.057 177.891 170.97L177.863 170.9L177.894 170.833C178.411 169.743 178.78 169.162 178.997 169.102C179.134 169.064 179.359 169.004 183.058 173.78C183.209 173.906 184.302 174.855 184.758 176.127C185.253 177.511 179.651 180.416 178.523 180.983C178.488 181.011 172.626 185.261 170.216 186.47C169.26 186.95 168.129 187.097 167.1 187.097L167.104 187.094Z" fill="#2F2E43"/>
<path d="M159.864 84.7595H139.269L137.401 103.869L145.578 174.477H156.091L151.887 133.697L168.941 170.514L178.284 163.99L164.968 129.618C164.968 129.618 169.724 99.675 165.987 92.2155C162.249 84.7595 159.864 84.7595 159.864 84.7595Z" fill="#2F2E43"/>
<path d="M170.11 85.9228H137.401L147.215 43.7445H161.466L170.11 85.9228Z" fill="#B7EFC5"/>
<path d="M173.054 108.336C173.577 110.901 172.618 113.245 170.918 113.571C169.218 113.897 167.416 112.078 166.896 109.514C166.675 108.491 166.71 107.432 166.998 106.423L160.524 66.2176L168.621 64.697L171.747 105.516C172.411 106.343 172.857 107.31 173.054 108.34V108.336Z" fill="#9F616A"/>
<path d="M155.94 43.7445H161.466C165.372 44.3366 166.433 46.4143 167.321 50.2545C168.677 56.1128 170.409 63.9121 170.065 64.0278C169.513 64.21 160.106 68.6247 155.312 67.6156L155.94 43.7445Z" fill="#B7EFC5"/>
</g>
<defs>
<clipPath id="clip0_15_69">
<rect width="264" height="189" fill="white"/>
</clipPath>
</defs>
</svg>
