<svg width="45" height="45" viewBox="0 0 45 45" fill="none" xmlns="http://www.w3.org/2000/svg">
<path d="M22.8663 35.3526C15.6637 35.3526 9.80316 29.4943 9.80316 22.2917C9.80316 15.0891 15.6637 9.2308 22.8663 9.2308C26.1293 9.2308 29.2525 10.4397 31.6637 12.6358L32.103 13.0373L27.7952 17.3451L27.3959 17.0035C26.1315 15.921 24.5233 15.3243 22.8663 15.3243C19.0243 15.3243 15.8966 18.4497 15.8966 22.2917C15.8966 26.1337 19.0243 29.2591 22.8663 29.2591C25.6368 29.2591 27.8262 27.8439 28.8577 25.4327H22.2984V19.5522L35.1042 19.5699L35.1996 20.0202C35.8673 23.1901 35.3327 27.8528 32.6265 31.189C30.3861 33.9507 27.1031 35.3526 22.8663 35.3526Z" fill="#3BB273"/>
<g clip-path="url(#clip0_14_63)">
</g>
<rect x="0.5" y="0.5" width="44" height="44" rx="22" stroke="#3BB273"/>
<defs>
<clipPath id="clip0_14_63">
<rect width="45" height="45" rx="22.5" fill="white"/>
</clipPath>
</defs>
</svg>
