<svg width="44" height="43" viewBox="0 0 44 43" fill="none" xmlns="http://www.w3.org/2000/svg">
<g clip-path="url(#clip0_14_65)">
</g>
<rect x="1.11539" y="0.653839" width="41.6923" height="41.6923" rx="20.8462" stroke="#3BB273"/>
<path d="M12.0331 11.0751C11.759 11.0751 11.5367 11.297 11.5367 11.5716V21.0036H21.4651V11.0751H12.0331ZM22.4579 11.0751V21.0036H32.3864V11.5716C32.3864 11.297 32.164 11.0751 31.89 11.0751H22.4579ZM11.5367 21.9964V31.4284C11.5367 31.703 11.759 31.9249 12.0331 31.9249H21.4651V21.9964H11.5367ZM22.4579 21.9964V31.9249H31.89C32.164 31.9249 32.3864 31.703 32.3864 31.4284V21.9964H22.4579Z" fill="#3BB273"/>
<defs>
<clipPath id="clip0_14_65">
<rect x="0.615387" y="0.153839" width="42.6923" height="42.6923" rx="21.3462" fill="white"/>
</clipPath>
</defs>
</svg>
