<svg width="43" height="43" viewBox="0 0 43 43" fill="none" xmlns="http://www.w3.org/2000/svg">
<g clip-path="url(#clip0_14_67)">
</g>
<rect x="0.576904" y="0.653839" width="41.6923" height="41.6923" rx="20.8462" stroke="#3BB273"/>
<path d="M31.5817 15.3317C31.4635 15.4057 28.6481 16.9682 28.6481 20.4327C28.7808 24.3836 32.201 25.7692 32.2596 25.7692C32.201 25.8432 31.7433 27.6567 30.3875 29.5577C29.3116 31.1952 28.1173 32.8461 26.3039 32.8461C24.5789 32.8461 23.9596 31.7548 21.9692 31.7548C19.8317 31.7548 19.2269 32.8461 17.5904 32.8461C15.7769 32.8461 14.4942 31.1067 13.3596 29.4846C11.8856 27.3615 10.6327 24.0298 10.5885 20.8307C10.5587 19.1355 10.8837 17.4692 11.7087 16.0538C12.8731 14.0778 14.9519 12.7365 17.2221 12.6923C18.9616 12.6336 20.5096 13.8865 21.5712 13.8865C22.5885 13.8865 24.4904 12.6923 26.6423 12.6923C27.5712 12.6932 30.0481 12.973 31.5817 15.3317ZM21.4241 12.3538C21.1144 10.8057 21.9692 9.25766 22.7654 8.27016C23.7827 7.07593 25.3894 6.26535 26.775 6.26535C26.8635 7.81343 26.3029 9.3317 25.301 10.4375C24.4019 11.6317 22.8539 12.5307 21.4241 12.3538Z" fill="#3BB273"/>
<defs>
<clipPath id="clip0_14_67">
<rect x="0.0769043" y="0.153839" width="42.6923" height="42.6923" rx="21.3462" fill="white"/>
</clipPath>
</defs>
</svg>
